<svg id="Layer_1" data-name="Layer 1" xmlns="http://www.w3.org/2000/svg" xmlns:xlink="http://www.w3.org/1999/xlink" viewBox="0 0 512 512"><defs><linearGradient id="linear-gradient" x1="256" y1="512" x2="256" gradientUnits="userSpaceOnUse"><stop offset="0" stop-color="#02699e"/><stop offset="1" stop-color="#8abce5"/></linearGradient></defs><title>recycle_bin</title><path d="M512,412.3A99.7,99.7,0,0,1,412.3,512H99.69A99.7,99.7,0,0,1,0,412.3V99.7A99.7,99.7,0,0,1,99.69,0H412.3A99.71,99.71,0,0,1,512,99.7Z" fill="url(#linear-gradient)"/><path d="M111.23,512H302.05l92.72-207.06c.39-.86.36-1.8.68-2.69a39.2,39.2,0,0,0,1.35-72.19L318.88,195.6c0-.34.23-.67.25-1a44.05,44.05,0,0,0-26-43.34,42.35,42.35,0,0,0-49.8,11c-24.66-10.89-78.13-34.53-78.13-34.53a39.25,39.25,0,0,0-54.79,33.2A39.4,39.4,0,0,0,123.1,192.6a34.31,34.31,0,0,0-6.73,3A37.51,37.51,0,0,0,100,222.33v0l-33,258.24a42.2,42.2,0,0,0,6.52,27.91A99.64,99.64,0,0,0,99.69,512Z" fill="#1c437d"/><path d="M310.78,312.11a9.66,9.66,0,0,0-6.26-12l-.45-.15a9.62,9.62,0,0,0-12,6.36l-50.79,164.2a9.63,9.63,0,0,0,6.23,12l.5.16A9.59,9.59,0,0,0,260,476.3Z" fill="none"/><path d="M237.12,285.68l-.47-.1a9.63,9.63,0,0,0-11.29,7.53L190.63,461.44A9.61,9.61,0,0,0,198,472.8l.47.1a9.6,9.6,0,0,0,11.27-7.51l34.73-168.32A9.6,9.6,0,0,0,237.12,285.68Z" fill="none"/><path d="M169.25,272.11l-.49-.06a9.64,9.64,0,0,0-10.49,8.58L139.74,451.51a9.57,9.57,0,0,0,8.43,10.56l.49,0a9.64,9.64,0,0,0,10.51-8.57l18.51-170.86A9.59,9.59,0,0,0,169.25,272.11Z" fill="none"/><path d="M380.1,241.9l-100-36.07,3.25-9.1A20.29,20.29,0,1,0,245.19,183l-3.25,9.1L142,156a15.59,15.59,0,0,0-19.87,9.49v0a15.69,15.69,0,0,0,9.32,20l238.14,85.89A15.68,15.68,0,0,0,380.1,241.9Zm-20.92,26.32-227.68-47c-8.56-1.77-16,4-16.47,12.82L100.21,494a19.29,19.29,0,0,0,11,18H286.63L369.2,286.51C372.24,278.22,367.72,270,359.19,268.22Zm-200,185.33a9.64,9.64,0,0,1-10.51,8.57l-.49,0a9.57,9.57,0,0,1-8.43-10.56l18.53-170.87A9.64,9.64,0,0,1,168.76,272l.49.06a9.59,9.59,0,0,1,8.43,10.58Zm39.32,19.34-.47-.1a9.61,9.61,0,0,1-7.39-11.36l34.73-168.32a9.63,9.63,0,0,1,11.29-7.53l.47.1a9.6,9.6,0,0,1,7.38,11.38L209.77,465.38A9.6,9.6,0,0,1,198.49,472.89ZM310.78,312.11,260,476.3a9.59,9.59,0,0,1-11.92,6.38l-.5-.16a9.63,9.63,0,0,1-6.23-12l50.79-164.2a9.62,9.62,0,0,1,12-6.36l.45.15A9.66,9.66,0,0,1,310.78,312.11Z" fill="#fff"/></svg>